<svg id="e3og8B1txXy1" xmlns="http://www.w3.org/2000/svg" xmlns:xlink="http://www.w3.org/1999/xlink" viewBox="-64 0 512 512" shape-rendering="geometricPrecision" text-rendering="geometricPrecision" project-id="cce2e784110b4a578a1c672e6919ce0c" export-id="464d603660cd463196b5aad4a0f296f1" cached="false"><rect width="512" height="362.948032" rx="0" ry="0" transform="translate(-64 0)" fill="#d9fb99" stroke-width="0"/><ellipse rx="100.662906" ry="79.061425" transform="translate(192 349.05464)" fill="#a4f345" stroke-width="0"/><rect width="512" height="149.051968" rx="0" ry="0" transform="translate(-64 362.948032)" fill="#39a1fb" stroke-width="0"/><path d="M352,128h-96v-96c0-17.67-14.33-32-32-32h-64c-17.67,0-32,14.33-32,32v96h-96c-17.67,0-32,14.33-32,32v64c0,17.67,14.33,32,32,32h96v224c0,17.67,14.33,32,32,32h64c17.67,0,32-14.33,32-32v-224h96c17.67,0,32-14.33,32-32v-64c0-17.67-14.33-32-32-32Z" transform="matrix(.802952 0 0 0.719541 37.833216 71.797504)"/><ellipse rx="21.153392" ry="16.452638" transform="translate(-30.652662 48.857672)" fill="#fff" stroke-width="0"/><ellipse rx="22.916174" ry="18.803015" transform="translate(-13.612431 67.660687)" fill="#fff" stroke-width="0"/><ellipse rx="26.44174" ry="16.452637" transform="translate(4.015396 84.113324)" fill="#fff" stroke-width="0"/><ellipse rx="16.90891" ry="8.813913" transform="translate(20.924306 92.927237)" fill="#fff" stroke-width="0"/><ellipse rx="23.666243" ry="13.808464" transform="translate(14.166973 79.118774)" fill="#fff" stroke-width="0"/><ellipse rx="23.503768" ry="17.627826" transform="translate(19.880439 66.485498)" fill="#fff" stroke-width="0"/><ellipse rx="28.498319" ry="11.469916" transform="translate(14.885888 60.327588)" fill="#fff" stroke-width="0"/><ellipse rx="32.905276" ry="16.899248" transform="translate(-7.148894 43.42834)" fill="#fff" stroke-width="0"/><ellipse rx="38.781217" ry="19.696235" transform="translate(29.281947 52.101269)" fill="#fff" stroke-width="0"/><ellipse rx="20.403322" ry="16.452637" transform="translate(58.236538 84.113324)" fill="#fff" stroke-width="0"/><ellipse rx="20.403322" ry="14.384228" transform="translate(58.236538 86.181733)" fill="#fff" stroke-width="0"/><ellipse rx="19.178049" ry="13.073971" transform="translate(39.058488 92.192745)" fill="#fff" stroke-width="0"/><ellipse rx="14.689856" ry="9.848118" transform="translate(63.950005 61.949387)" fill="#fff" stroke-width="0"/><ellipse rx="21.038472" ry="10.723594" transform="translate(70.298622 89.842368)" fill="#fff" stroke-width="0"/><ellipse rx="21.153391" ry="6.15791" transform="translate(64.537598 77.955414)" fill="#fff" stroke-width="0"/><ellipse rx="21.038472" ry="8.003014" transform="translate(70.298622 69.952401)" fill="#fff" stroke-width="0"/><ellipse rx="23.976443" ry="10.940985" transform="translate(67.36065 54.369325)" fill="#fff" stroke-width="0"/><ellipse rx="21.038472" ry="10.982146" transform="translate(70.298622 43.38718)" fill="#fff" stroke-width="0"/><ellipse rx="24.687158" ry="11.16429" transform="translate(45.611464 37.693382)" fill="#fff" stroke-width="0"/><ellipse rx="28.204522" ry="8.429044" transform="translate(21.055628 34.958136)" fill="#fff" stroke-width="0"/><ellipse rx="35.140733" ry="11.16429" transform="translate(56.196361 37.693382)" fill="#fff" stroke-width="0"/><ellipse rx="17.685285" ry="11.469916" transform="translate(87.983907 60.327588)" fill="#fff" stroke-width="0"/><ellipse rx="18.21542" ry="7.485912" transform="translate(96.85528 85.441327)" fill="#fff" stroke-width="0"/><ellipse rx="18.21542" ry="7.712174" transform="translate(96.85528 97.554542)" fill="#fff" stroke-width="0"/><ellipse rx="22.973633" ry="11.237738" transform="translate(93.272255 103.430484)" fill="#fff" stroke-width="0"/><ellipse rx="25.32401" ry="8.483391" transform="translate(81.520371 94.947093)" fill="#fff" stroke-width="0"/><ellipse rx="1.824343" ry="1.175189" transform="translate(47.435807 91.017557)" fill="#fff" stroke-width="0"/><ellipse rx="24.621497" ry="9.860565" transform="translate(45.677125 104.807658)" fill="#fff" stroke-width="0"/><ellipse rx="21.186221" ry="10.448159" transform="translate(66.797686 105.395252)" fill="#fff" stroke-width="0"/><ellipse rx="17.334029" ry="6.794058" transform="translate(114.189309 96.636426)" fill="#fff" stroke-width="0"/><ellipse rx="20.565796" ry="9.022432" transform="translate(99.205657 80.819936)" fill="#fff" stroke-width="0"/><ellipse rx="5.610875" ry="0.922552" transform="translate(93.594782 70.874953)" fill="#fff" stroke-width="0"/><ellipse rx="31.876986" ry="13.225305" transform="translate(46.762874 67.594631)" fill="#fff" stroke-width="0"/><ellipse rx="13.514667" ry="8.449624" transform="translate(-17.137995 34.978716)" fill="#fff" stroke-width="0"/><ellipse rx="22.769275" ry="12.562784" transform="translate(-7.883387 30.865556)" fill="#fff" stroke-width="0"/><ellipse rx="17.521546" ry="12.542204" transform="translate(21.536942 30.844976)" fill="#fff" stroke-width="0"/><ellipse rx="17.656555" ry="8.813913" transform="translate(105.640463 69.141501)" fill="#fff" stroke-width="0"/><ellipse rx="16.203986" ry="9.705595" transform="translate(83.001672 44.663731)" fill="#fff" stroke-width="0"/><ellipse rx="19.068082" ry="8.327682" transform="translate(62.452289 26.630454)" fill="#fff" stroke-width="0"/><ellipse rx="22.916174" ry="16.975964" transform="translate(407.105018 122.371216)" fill="#fff" stroke-width="0"/><ellipse rx="11.751884" ry="9.401508" transform="translate(384.188844 124.06973)" fill="#fff" stroke-width="0"/><ellipse rx="16.660653" ry="12.339479" transform="translate(362.827437 127.007701)" fill="#fff" stroke-width="0"/><ellipse rx="25.266551" ry="16.452638" transform="translate(347.170409 131.12086)" fill="#fff" stroke-width="0"/><ellipse rx="18.146041" ry="12.601141" transform="translate(310.808948 134.972357)" fill="#fff" stroke-width="0"/><ellipse rx="29.37971" ry="12.339479" transform="translate(299.575279 127.007701)" fill="#fff" stroke-width="0"/><ellipse rx="20.565797" ry="14.037993" transform="translate(320.141076 119.433245)" fill="#fff" stroke-width="0"/><ellipse rx="26.147942" ry="22.071507" transform="translate(346.289018 125.501991)" fill="#fff" stroke-width="0"/><ellipse rx="21.740986" ry="18.417406" transform="translate(362.447859 115.053832)" fill="#fff" stroke-width="0"/><ellipse rx="19.978203" ry="15.67683" transform="translate(375.962525 106.694387)" fill="#fff" stroke-width="0"/><ellipse rx="17.627826" ry="9.956968" transform="translate(401.816671 129.390213)" fill="#fff" stroke-width="0"/><ellipse rx="14.102261" ry="9.091642" transform="translate(370.086584 138.481856)" fill="#fff" stroke-width="0"/><ellipse rx="15.865044" ry="7.05113" transform="translate(385.951628 140.522368)" fill="#fff" stroke-width="0"/><ellipse rx="23.503768" ry="10.576695" transform="translate(414.743742 149.923875)" fill="#fff" stroke-width="0"/><ellipse rx="15.571246" ry="7.638724" transform="translate(422.676264 148.161092)" fill="#fff" stroke-width="0"/><ellipse rx="11.751884" ry="6.757334" transform="translate(426.495626 133.765035)" fill="#fff" stroke-width="0"/><ellipse rx="17.627826" ry="8.226319" transform="translate(373.612148 141.697557)" fill="#fff" stroke-width="0"/><ellipse rx="20.565798" ry="9.989101" transform="translate(349.520787 150.511469)" fill="#fff" stroke-width="0"/><ellipse rx="18.362318" ry="7.344928" transform="translate(404.313946 134.352629)" fill="#fff" stroke-width="0"/><ellipse rx="14.689856" ry="11.009357" transform="translate(334.830932 149.491213)" fill="#fff" stroke-width="0"/><ellipse rx="12.339477" ry="6.904231" transform="translate(414.156149 140.669267)" fill="#fff" stroke-width="0"/><ellipse rx="7.638725" ry="1.607851" transform="translate(422.382467 140.089707)" fill="#fff" stroke-width="0"/><ellipse rx="11.751884" ry="6.610435" transform="translate(426.495626 140.963063)" fill="#fff" stroke-width="0"/><ellipse rx="17.627826" ry="7.855055" transform="translate(373.612149 147.944761)" fill="#fff" stroke-width="0"/><ellipse rx="25.664356" ry="9.401506" transform="translate(388.491793 151.099064)" fill="#fff" stroke-width="0"/><ellipse rx="9.875522" ry="6.014807" transform="translate(324.95541 144.496663)" fill="#fff" stroke-width="0"/><ellipse rx="7.491825" ry="5.686405" transform="translate(106.697484 86.506341)" fill="#fff" stroke-width="0"/></svg>
